<?xml version="1.0" encoding="UTF-8" standalone="no"?>
<!-- Created with Inkscape (http://www.inkscape.org/) -->

<svg
   xmlns:dc="http://purl.org/dc/elements/1.1/"
   xmlns:cc="http://creativecommons.org/ns#"
   xmlns:rdf="http://www.w3.org/1999/02/22-rdf-syntax-ns#"
   xmlns:svg="http://www.w3.org/2000/svg"
   xmlns="http://www.w3.org/2000/svg"
   xmlns:sodipodi="http://sodipodi.sourceforge.net/DTD/sodipodi-0.dtd"
   xmlns:inkscape="http://www.inkscape.org/namespaces/inkscape"
   width="442.50684"
   height="195.79393"
   viewBox="0 0 117.07993 51.803812"
   version="1.1"
   id="svg8"
   inkscape:version="0.92.1 r15371"
   sodipodi:docname="fabercards.svg"
   inkscape:export-filename="F:\alexf_000\Dropbox\Dropbox\fabercards_favicon-16x16.png"
   inkscape:export-xdpi="3.0719998"
   inkscape:export-ydpi="3.0719998">
  <defs
     id="defs2" />
  <sodipodi:namedview
     id="base"
     pagecolor="#ffffff"
     bordercolor="#666666"
     borderopacity="1.0"
     inkscape:pageopacity="0.0"
     inkscape:pageshadow="2"
     inkscape:zoom="0.89"
     inkscape:cx="270.6046"
     inkscape:cy="148.80807"
     inkscape:document-units="mm"
     inkscape:current-layer="layer1"
     showgrid="false"
     inkscape:window-width="1440"
     inkscape:window-height="837"
     inkscape:window-x="1272"
     inkscape:window-y="198"
     inkscape:window-maximized="1"
     units="px"
     fit-margin-top="0"
     fit-margin-left="0"
     fit-margin-right="0"
     fit-margin-bottom="0" />
  <metadata
     id="metadata5">
    <rdf:RDF>
      <cc:Work
         rdf:about="">
        <dc:format>image/svg+xml</dc:format>
        <dc:type
           rdf:resource="http://purl.org/dc/dcmitype/StillImage" />
        <dc:title></dc:title>
      </cc:Work>
    </rdf:RDF>
  </metadata>
  <g
     inkscape:label="Layer 1"
     inkscape:groupmode="layer"
     id="layer1"
     transform="translate(-7.6058677,-204.95225)">
    <g
       aria-label="FABER
CARDS
"
       transform="matrix(0.26458333,0,0,0.26458333,22.034326,86.533379)"
       style="font-style:normal;font-weight:normal;font-size:40px;line-height:45.70000076px;font-family:sans-serif;letter-spacing:0px;word-spacing:0px;fill:#000000;fill-opacity:1;stroke:none"
       id="flowRoot4485" />
    <path
       id="rect4670"
       style="fill:#000000;stroke:#000000;stroke-width:0.41042233;stroke-miterlimit:4;stroke-dasharray:none"
       d="M 7.9350168,234.915 H 124.35664 v -0.21678 H 7.9350168 Z M 122.60989,248.56469 q 0.52548,0.58387 0.77071,1.2845 0.25688,0.68895 0.25688,1.61145 0,2.19533 -1.62313,3.61994 -1.62313,1.42462 -4.02864,1.42462 -1.10934,0 -2.21867,-0.33864 -1.10934,-0.35032 -1.91507,-0.84077 l -0.50212,0.85245 h -0.93418 l -0.16348,-5.67514 h 0.94585 q 0.29193,1.05096 0.67728,1.9034 0.39702,0.84075 1.03928,1.57643 0.60721,0.68894 1.41294,1.09765 0.8174,0.40872 1.89171,0.40872 0.80573,0 1.40127,-0.21016 0.60721,-0.21015 0.98088,-0.59553 0.37367,-0.38535 0.54883,-0.89916 0.18685,-0.52548 0.18685,-1.20275 0,-0.99258 -0.56052,-1.845 -0.56051,-0.86412 -1.66984,-1.30785 -0.75902,-0.30362 -1.73991,-0.66559 -0.98088,-0.37368 -1.6932,-0.70064 -1.40127,-0.63058 -2.18364,-1.6465 -0.77069,-1.0276 -0.77069,-2.67408 0,-0.94587 0.38534,-1.76327 0.38535,-0.81741 1.09766,-1.45966 0.67728,-0.60721 1.59978,-0.94584 0.9225,-0.35033 1.92674,-0.35033 1.14437,0 2.04352,0.35033 0.91082,0.3503 1.65816,0.8174 l 0.47877,-0.79406 h 0.93417 l 0.0934,5.49999 H 121.991 q -0.25691,-0.94587 -0.58387,-1.80999 -0.31529,-0.86409 -0.82908,-1.56473 -0.50212,-0.67729 -1.22611,-1.07431 -0.72399,-0.40871 -1.77494,-0.40871 -1.10933,0 -1.89171,0.71233 -0.78237,0.71231 -0.78237,1.73988 0,1.07431 0.50212,1.78662 0.50212,0.70064 1.45965,1.15606 0.85244,0.40869 1.66984,0.71231 0.82909,0.29192 1.59979,0.63058 0.70062,0.30359 1.34287,0.68894 0.65392,0.38535 1.13269,0.89915 z m -21.90648,-0.58386 q 0,2.11358 -0.794044,3.66665 -0.794053,1.55306 -2.066869,2.54564 -1.284496,0.99256 -2.884278,1.483 -1.599782,0.49044 -3.304654,0.49044 h -6.866208 v -0.82907 q 0.338635,0 0.875791,-0.0585 0.548825,-0.0701 0.723985,-0.1519 0.350316,-0.15189 0.502124,-0.44373 0.163481,-0.30361 0.163481,-0.724 v -11.95747 q 0,-0.39704 -0.140136,-0.71231 -0.128441,-0.31529 -0.525475,-0.50213 -0.361993,-0.1752 -0.782374,-0.25689 -0.420379,-0.0818 -0.723989,-0.10507 v -0.8291 h 7.239883 q 1.494686,0 2.94266,0.4671 1.44798,0.4554 2.522281,1.23779 1.459655,1.03927 2.288741,2.72079 0.829081,1.68152 0.829081,3.95858 z m -2.860913,-0.0127 q 0,-1.66985 -0.443735,-3.01274 -0.443737,-1.35456 -1.296172,-2.35879 -0.80573,-0.95754 -1.985131,-1.50637 -1.167722,-0.54882 -2.604019,-0.54882 -0.47877,0 -1.085984,0.0233 -0.595537,0.0106 -0.887472,0.0233 v 12.73986 q 0,1.06264 0.618895,1.47133 0.618895,0.40871 1.903386,0.40871 1.483011,0 2.592344,-0.52548 1.109338,-0.52546 1.798296,-1.45966 0.723989,-0.98088 1.050951,-2.26538 0.338641,-1.29616 0.338641,-2.98937 z m -23.167621,8.19738 h -4.460698 q -1.483007,-2.32377 -2.685764,-4.01696 -1.191078,-1.69319 -2.592344,-3.49148 h -1.693196 v 5.25473 q 0,0.40871 0.128442,0.724 0.128442,0.3036 0.548827,0.46708 0.210193,0.0818 0.735664,0.15189 0.525475,0.0701 0.887474,0.0818 v 0.82908 h -7.006336 v -0.82908 q 0.280254,-0.0233 0.805729,-0.0818 0.537151,-0.0585 0.747341,-0.15189 0.350316,-0.15189 0.502118,-0.44373 0.16348,-0.29192 0.16348,-0.74735 v -11.98082 q 0,-0.40871 -0.116769,-0.724 -0.116769,-0.31529 -0.548831,-0.47877 -0.291929,-0.10507 -0.759022,-0.18684 -0.467087,-0.0934 -0.794048,-0.11673 v -0.8291 h 7.648581 q 1.050951,0 1.973449,0.22187 0.922505,0.21015 1.669846,0.68896 0.723989,0.4671 1.156045,1.22612 0.432056,0.74734 0.432056,1.80996 0,0.95754 -0.291929,1.69319 -0.291929,0.73568 -0.864116,1.27283 -0.525475,0.50212 -1.261142,0.87579 -0.735663,0.362 -1.623131,0.61888 1.226108,1.62314 2.031836,2.73249 0.817404,1.10932 1.996807,2.69744 0.513799,0.70062 0.922499,1.03927 0.420379,0.32696 0.829083,0.53716 0.30361,0.15168 0.759022,0.23354 0.455412,0.0818 0.759016,0.0934 z M 68.532657,243.811 q 0,-1.50636 -0.864116,-2.38215 -0.864112,-0.88746 -2.440536,-0.88746 h -1.985131 v 7.11143 h 1.529719 q 1.611457,0 2.685758,-1.0276 1.074306,-1.03927 1.074306,-2.81422 z m -20.143214,12.3545 h -6.901242 v -0.82907 q 0.910824,-0.0585 1.506362,-0.23356 0.607214,-0.1752 0.607214,-0.43206 0,-0.10507 -0.02337,-0.25688 -0.02337,-0.1519 -0.07006,-0.26858 l -1.377917,-3.71337 h -5.803578 q -0.326966,0.8174 -0.537156,1.42464 -0.198499,0.60721 -0.361991,1.121 -0.151808,0.50211 -0.210192,0.8174 -0.05839,0.31529 -0.05839,0.51381 0,0.46708 0.735666,0.72398 0.735664,0.25691 1.658169,0.30362 v 0.82907 H 31.31732 v -0.82907 q 0.303604,-0.0233 0.759016,-0.12838 0.455412,-0.11673 0.747345,-0.3036 0.467089,-0.31528 0.723985,-0.65392 0.256902,-0.35033 0.502124,-0.95754 1.24946,-3.11781 2.755823,-7.00633 1.506361,-3.88852 2.685764,-6.9246 h 0.93418 l 5.523323,14.29293 q 0.175153,0.45541 0.397029,0.73566 0.221866,0.28025 0.618889,0.54882 0.268579,0.16355 0.700635,0.28027 0.432061,0.10508 0.72399,0.11673 z m -6.679377,-6.77279 -2.5106,-6.42247 -2.463898,6.42247 z m -26.367177,7.15814 q -1.483007,0 -2.849243,-0.58387 -1.354557,-0.58384 -2.405508,-1.68152 -1.0392714,-1.09765 -1.6581663,-2.67407 -0.6188928,-1.5881 -0.6188928,-3.57324 0,-1.98514 0.6072159,-3.59658 0.6072159,-1.62313 1.6815202,-2.79087 1.062628,-1.15604 2.510602,-1.78659 1.447981,-0.63058 3.094468,-0.63058 1.226109,0 2.218671,0.30359 0.992569,0.30362 1.891712,0.85245 l 0.478767,-0.79406 h 0.93418 l 0.105096,5.90868 h -0.957537 q -0.186827,-0.86412 -0.560506,-1.86835 -0.373668,-1.01592 -0.875791,-1.71656 -0.560509,-0.79404 -1.331206,-1.23779 -0.770696,-0.4554 -1.763258,-0.4554 -1.132696,0 -2.113581,0.50211 -0.969207,0.50214 -1.681521,1.48302 -0.677277,0.94585 -1.062626,2.40551 -0.385348,1.45965 -0.385348,3.25794 0,1.5881 0.397025,2.91931 0.408703,1.31952 1.156043,2.32377 0.747348,0.99256 1.763266,1.55306 1.027593,0.56052 2.288734,0.56052 0.945855,0 1.739907,-0.29194 0.794055,-0.3036 1.377913,-0.79404 0.583862,-0.51381 1.027599,-1.16773 0.443731,-0.65393 0.723985,-1.42462 l 0.875791,0.42039 q -1.004237,2.46388 -2.662408,3.52652 -1.658165,1.05094 -3.946903,1.05094 z M 124.48059,230.36266 h -6.69106 q -2.22451,-3.48565 -4.02864,-6.02546 -1.78662,-2.53979 -3.88852,-5.23724 h -2.5398 v 7.88214 q 0,0.61306 0.19268,1.08598 0.19267,0.45541 0.82324,0.70064 0.31528,0.12266 1.1035,0.22769 0.78821,0.10508 1.3312,0.12266 v 1.24364 h -10.5095 v -1.24364 q 0.42038,-0.035 1.20859,-0.12266 0.80573,-0.0875 1.12101,-0.22769 0.52548,-0.22771 0.75319,-0.66562 0.24522,-0.43788 0.24522,-1.121 v -17.97126 q 0,-0.61304 -0.17516,-1.08598 -0.17515,-0.47293 -0.82324,-0.71814 -0.4379,-0.15761 -1.13853,-0.28025 -0.70063,-0.14003 -1.19108,-0.17519 v -1.24362 h 11.47288 q 1.57642,0 2.96017,0.33279 1.38376,0.31529 2.50477,1.03344 1.08598,0.70064 1.73407,1.83916 0.64808,1.12102 0.64808,2.71496 0,1.43629 -0.43789,2.53979 -0.4379,1.1035 -1.29617,1.90923 -0.78822,0.75318 -1.89172,1.3137 -1.10349,0.54298 -2.4347,0.92832 1.83917,2.43472 3.04776,4.09872 1.22611,1.664 2.99521,4.04616 0.77069,1.05094 1.38374,1.5589 0.63058,0.49044 1.24364,0.80573 0.4554,0.22772 1.13852,0.35033 0.68311,0.12266 1.13854,0.14003 z m -9.21334,-18.53176 q 0,-2.25954 -1.29617,-3.57324 -1.29618,-1.33119 -3.66081,-1.33119 h -2.9777 v 10.66714 h 2.29458 q 2.41718,0 4.02864,-1.5414 1.61146,-1.55891 1.61146,-4.22131 z m -17.34418,11.21014 -0.472927,7.32162 H 76.816484 v -1.24363 q 0.525475,-0.035 1.401266,-0.14003 0.875793,-0.12266 1.13853,-0.24523 0.560508,-0.26273 0.770697,-0.68312 0.227705,-0.42039 0.227705,-1.06846 v -17.86617 q 0,-0.57802 -0.192673,-1.01591 -0.192673,-0.45542 -0.805729,-0.73567 -0.472928,-0.22771 -1.278655,-0.40287 -0.788214,-0.17519 -1.261141,-0.21015 v -1.24361 h 19.232392 v 5.99041 h -1.31369 q -0.350315,-1.3312 -1.523878,-2.82004 -1.156045,-1.50637 -2.206994,-1.64651 -0.542993,-0.0701 -1.296172,-0.10507 -0.753181,-0.035 -1.716553,-0.035 h -3.906032 v 9.87894 h 2.802535 q 1.348718,0 1.961772,-0.24524 0.630572,-0.26273 1.103499,-0.85827 0.385349,-0.50796 0.648086,-1.34871 0.280254,-0.85829 0.367833,-1.61146 h 1.313687 v 9.7213 h -1.313687 q -0.07006,-0.84078 -0.385349,-1.7691 -0.297769,-0.94587 -0.63057,-1.36625 -0.54299,-0.68312 -1.243624,-0.89329 -0.683117,-0.21015 -1.821647,-0.21015 h -2.802535 v 7.46173 q 0,1.12102 0.157634,1.7691 0.157634,0.6481 0.613054,0.98089 0.455412,0.3328 1.243624,0.4379 0.788214,0.0875 2.242029,0.0875 0.578021,0 1.523878,0 0.945855,0 1.593942,-0.0701 0.6656,-0.0701 1.366233,-0.24523 0.718151,-0.19257 1.015921,-0.50796 0.805727,-0.84075 1.68152,-2.53979 0.893307,-1.71656 1.13853,-2.52227 z m -26.522489,-4.25635 q 1.085981,0.73566 1.804132,1.92673 0.718148,1.19108 0.718148,2.89012 0,1.73406 -0.753181,3.01272 -0.753181,1.27867 -1.961775,2.1019 -1.17356,0.80573 -2.662406,1.22612 -1.471332,0.42038 -3.047756,0.42038 H 53.727099 v -1.24363 q 0.420379,-0.035 1.226109,-0.14003 0.805727,-0.12266 1.156045,-0.28027 0.54299,-0.24521 0.770696,-0.64808 0.227706,-0.42039 0.227706,-1.06846 v -17.86617 q 0,-0.59554 -0.210192,-1.05094 -0.192673,-0.45541 -0.788212,-0.73568 -0.525476,-0.26273 -1.173561,-0.40284 -0.648087,-0.14003 -1.085984,-0.1752 v -1.24362 h 11.472875 q 1.331205,0 2.539798,0.26274 1.226109,0.26275 2.329606,0.92834 1.033436,0.61306 1.699036,1.664 0.665603,1.05095 0.665603,2.55731 0,1.3137 -0.472928,2.34712 -0.472927,1.01592 -1.331205,1.7516 -0.805727,0.70063 -1.856678,1.19108 -1.033434,0.47292 -2.242027,0.73565 v 0.15761 q 1.068466,0.12266 2.382154,0.54298 1.331203,0.40287 2.364638,1.13854 z m -4.221317,-3.74838 q 0.648085,-0.7532 0.893306,-1.64651 0.262739,-0.89331 0.262739,-2.1194 0,-2.04937 -1.121015,-3.20541 -1.121012,-1.17356 -3.538199,-1.17356 -0.560506,0 -1.418784,0.035 -0.84076,0.0169 -1.418781,0.035 v 9.54614 h 2.224511 q 1.436299,0 2.452217,-0.36784 1.033436,-0.36783 1.664006,-1.10348 z m 2.417184,7.93465 q 0,-2.20698 -1.488845,-3.62577 -1.47133,-1.41879 -4.221317,-1.41879 -1.121014,0 -1.891711,0.035 -0.770697,0.0169 -1.156045,0.0349 v 8.75791 q 0,1.1035 0.893308,1.664 0.893306,0.56052 2.487248,0.56052 2.60986,0 3.993611,-1.52388 1.383751,-1.52389 1.383751,-4.48407 z m -16.520938,7.3917 H 42.723647 v -1.24363 q 1.366236,-0.0875 2.259545,-0.35031 0.910824,-0.26275 0.910824,-0.6481 0,-0.15761 -0.03504,-0.38534 -0.03504,-0.22772 -0.105096,-0.40287 l -2.066869,-5.57002 h -8.705372 q -0.490443,1.22609 -0.805728,2.13692 -0.297769,0.91083 -0.542993,1.68152 -0.227706,0.75318 -0.315285,1.22612 -0.08758,0.47292 -0.08758,0.77069 0,0.70064 1.103499,1.08598 1.103497,0.38535 2.487248,0.45541 v 1.24363 h -9.353458 v -1.24363 q 0.455412,-0.035 1.13853,-0.19257 0.683118,-0.1752 1.121012,-0.4554 0.700636,-0.47295 1.085984,-0.98089 0.385348,-0.52548 0.753179,-1.43631 1.874196,-4.67673 4.133738,-10.50951 2.259544,-5.83277 4.028644,-10.38689 h 1.401266 l 8.284994,21.4394 q 0.262736,0.68312 0.595539,1.10348 0.3328,0.42039 0.928339,0.82325 0.402864,0.24524 1.050951,0.42039 0.648085,0.15761 1.085982,0.1752 z m -10.01906,-10.1592 -3.765907,-9.6337 -3.695842,9.6337 z M 27.901745,211.7258 h -1.313687 q -0.367833,-1.38375 -1.541394,-2.96017 -1.156047,-1.57643 -2.224514,-1.73408 -0.54299,-0.0701 -1.29617,-0.10508 -0.735666,-0.0349 -1.68152,-0.0349 h -4.168771 v 9.98402 h 2.855081 q 1.296172,0 2.014323,-0.26273 0.718149,-0.28027 1.226109,-0.84077 0.350315,-0.38534 0.630569,-1.19107 0.29777,-0.82326 0.385349,-1.75158 h 1.331203 v 9.75631 H 22.78712 q -0.05252,-0.77069 -0.367833,-1.75158 -0.29777,-0.98088 -0.648085,-1.41879 -0.525476,-0.64807 -1.331205,-0.87578 -0.788212,-0.24522 -1.909227,-0.24522 h -2.855081 v 8.56524 q 0,0.57802 0.227706,1.03345 0.227706,0.4554 0.80573,0.73565 0.262736,0.12266 1.138527,0.29777 0.875793,0.17519 1.331205,0.19257 v 1.24363 H 8.4066179 v -1.24363 q 0.5254754,-0.035 1.4012665,-0.10508 0.8757926,-0.0875 1.1385296,-0.21015 0.525476,-0.22769 0.753182,-0.6656 0.245219,-0.4554 0.245219,-1.08598 v -17.93622 q 0,-0.57802 -0.192673,-1.01591 -0.192674,-0.45542 -0.805728,-0.73567 -0.472927,-0.22771 -1.2786546,-0.40287 -0.7882142,-0.17519 -1.2611415,-0.21015 v -1.24361 H 27.901745 Z"
       inkscape:connector-curvature="0" />
  </g>
</svg>
